<svg width="16" height="14" viewBox="0 0 16 14" fill="none" xmlns="http://www.w3.org/2000/svg">
<path d="M15.1963 1C15.2191 0.999674 15.2765 1.00296 15.3389 1.01758C15.4048 1.03308 15.4384 1.05254 15.4473 1.05957C15.4502 1.06193 15.4529 1.06416 15.457 1.07324C15.4628 1.08606 15.4688 1.10674 15.4756 1.14551C15.4815 1.17943 15.4908 1.25254 15.4961 1.34082C15.5014 1.42969 15.5014 1.5157 15.4951 1.58008C15.2758 3.83839 14.3214 9.35917 13.833 11.9189C13.6368 12.9472 13.3114 12.9915 13.2715 12.9951C12.9884 13.0206 12.7186 12.9346 12.3896 12.7451C12.2235 12.6494 12.0526 12.5339 11.8623 12.4014C11.677 12.2723 11.47 12.1259 11.2529 11.9863C10.6085 11.5722 10.1047 11.2356 9.60254 10.9004C9.10038 10.5652 8.59962 10.2301 7.9668 9.82129C7.62884 9.60294 7.49972 9.45101 7.45605 9.36914C7.43264 9.32518 7.43188 9.30946 7.4541 9.25977C7.49229 9.1744 7.58322 9.056 7.76172 8.87793C7.84686 8.793 7.94025 8.70546 8.04492 8.60645C8.14735 8.50956 8.2586 8.40358 8.36914 8.29102C8.36958 8.29057 8.37127 8.28881 8.37402 8.28613C8.37739 8.28286 8.38204 8.27882 8.3877 8.27344C8.39933 8.26236 8.41464 8.24812 8.43359 8.23047C8.47166 8.19501 8.52236 8.14829 8.58398 8.0918C8.7073 7.97875 8.8716 7.82813 9.06445 7.65234C9.44944 7.30142 9.94467 6.85001 10.4355 6.39551C10.9257 5.94165 11.4153 5.48135 11.7881 5.11426C11.9737 4.93147 12.1361 4.76746 12.2559 4.63574C12.3151 4.57053 12.3699 4.50596 12.4141 4.44824C12.4359 4.41964 12.4605 4.38576 12.4824 4.34961C12.4993 4.32166 12.538 4.25598 12.5586 4.16992C12.579 4.0847 12.5839 3.9746 12.5674 3.86523C12.5528 3.76895 12.5122 3.61294 12.3896 3.47754L12.332 3.4209L12.2695 3.37207C12.122 3.27056 11.965 3.24888 11.8564 3.24805C11.7976 3.24762 11.7418 3.25354 11.6953 3.26074L11.5898 3.28125C11.5067 3.29974 11.432 3.33996 11.4209 3.3457C11.3873 3.36309 11.3489 3.38521 11.3076 3.40918C11.224 3.4577 11.1116 3.52578 10.9727 3.6123C10.6936 3.78611 10.2939 4.04191 9.77539 4.37793C8.7376 5.05044 7.21473 6.05085 5.20801 7.37891L5.20508 7.38086C4.66331 7.74559 4.23163 7.8821 3.89648 7.875C3.69297 7.87064 3.35495 7.80969 2.94531 7.70898C2.54697 7.61105 2.11734 7.48487 1.74805 7.36719C1.24835 7.20794 0.8946 7.1129 0.644531 6.99414C0.604191 6.97498 0.574492 6.95576 0.550781 6.94141C0.563707 6.93067 0.578348 6.91766 0.59668 6.9043C0.729321 6.80772 0.950254 6.69157 1.28125 6.5625L1.28906 6.55957L1.2959 6.55664C5.59151 4.72178 8.45232 3.5132 9.88086 2.93066C11.928 2.09586 13.1529 1.61079 13.9336 1.33301C14.5254 1.12246 14.8336 1.04202 15.0303 1.01367L15.1963 1Z" fill="#112F38" stroke="black"/>
</svg>
